# xmcd CD database file
# Copyright (C) 1993-1998 Ti Kan
#
# Track frame offsets:
# 150
# 9325
# 19042
# 29367
# 40365
# 49835
# 61510
# 73205
# 84210
# 94142
# 104262
# 114350
# 124387
# 134935
# 143922
# 155755
# 165070
# 176695
#
# Disc length: 2499 seconds
# Revision: 0
# Processed by: cddbd v1.4b41PL1 Copyright (c) Steve Scherf et al.
# Submitted via: CDSpectrumPro v3.2.328
#
DISCID=ef09c112
DTITLE=The Wilburn Brothers - Trouble's Back In Town - The Hits Of The Wilburn
DTITLE=Brothers
DYEAR=1900
DGENRE=
TTITLE0=Sparkling Brown Eyes
TTITLE1=I Wanna, Wanna, Wanna
TTITLE2=I'm So In Love With You
TTITLE3=Mister Love
TTITLE4=Hey, Mr. Bluebird
TTITLE5=Which One Is To Blame?
TTITLE6=The Knoxville Girl
TTITLE7=Somebody's Back In Town
TTITLE8=Trouble's Back In Town
TTITLE9=Roll Muddy River
TTITLE10=Tell Her So
TTITLE11=I'm Gonna Tie One On Tonight
TTITLE12=I Had One Too Many
TTITLE13=It's Another World
TTITLE14=Someone Before Me
TTITLE15=I Can't Keep Away From You
TTITLE16=Hurt Her Once For Me
TTITLE17=Arkansas
EXTD=
EXTT0=With Webb Pierce
EXTT1=
EXTT2=
EXTT3=With Ernerst Tubb
EXTT4=With Ernest Tubb
EXTT5=
EXTT6=
EXTT7=
EXTT8=
EXTT9=
EXTT10=
EXTT11=
EXTT12=
EXTT13=
EXTT14=
EXTT15=
EXTT16=
EXTT17=
PLAYORDER=
